<svg width="24" height="24" viewBox="0 0 24 24" fill="none" xmlns="http://www.w3.org/2000/svg">
<g id="Avatar">
<path id="Vector" d="M0.5 12C0.5 5.65214 5.65214 0.5 12 0.5C18.3479 0.5 23.5 5.65214 23.5 12C23.5 18.3479 18.3479 23.5 12 23.5C5.65214 23.5 0.5 18.3479 0.5 12Z" fill="#CED4DA" stroke="white"/>
<path id="Vector_2" d="M11.7 3.75C13.692 3.75 15.3 5.358 15.3 7.35C15.3 9.342 13.692 10.95 11.7 10.95C9.708 10.95 8.1 9.342 8.1 7.35C8.1 5.358 9.708 3.75 11.7 3.75ZM11.7 20.79C8.7 20.79 6.048 19.254 4.5 16.926C4.536 14.538 9.3 13.23 11.7 13.23C14.088 13.23 18.864 14.538 18.9 16.926C17.352 19.254 14.7 20.79 11.7 20.79Z" fill="white"/>
</g>
</svg>
